<svg viewBox="-100 0 175 175" xmlns="http://www.w3.org/2000/svg">
  <path fill="#FF0066" d="M44.3,-69.8C57.7,-69,69.2,-57.8,76.5,-44.4C83.8,-31,86.9,-15.5,85.6,-0.8C84.3,14,78.5,28,71.4,41.7C64.3,55.4,55.9,68.8,43.8,68.3C31.6,67.7,15.8,53.2,5.1,44.4C-5.6,35.5,-11.2,32.3,-24.4,33.5C-37.6,34.7,-58.4,40.2,-72,35.3C-85.6,30.5,-92.1,15.2,-86.9,3C-81.7,-9.2,-64.8,-18.5,-50.6,-22.4C-36.5,-26.2,-25,-24.8,-17,-28.8C-9,-32.8,-4.5,-42.3,5.5,-51.8C15.4,-61.2,30.9,-70.7,44.3,-69.8Z" transform="translate(100 100)" />
</svg>